<svg width="108" height="43" viewBox="0 0 108 43" fill="none" xmlns="http://www.w3.org/2000/svg">
<path d="M11.817 42.4817L3.94922 35.2004" stroke="#CB9700" stroke-width="0.94" stroke-miterlimit="10" stroke-linecap="round"/>
<path d="M16.1446 37.9685L0.591064 19.644" stroke="#CB9700" stroke-width="0.94" stroke-miterlimit="10" stroke-linecap="round"/>
<path d="M20.4946 33.8196L13.5977 21.6033" stroke="#CB9700" stroke-width="0.94" stroke-miterlimit="10" stroke-linecap="round"/>
<path d="M26.3995 30.4662L16.9338 8.80444" stroke="#CB9700" stroke-width="0.94" stroke-miterlimit="10" stroke-linecap="round"/>
<path d="M33.0948 26.9257L28.9485 14.9116" stroke="#CB9700" stroke-width="0.94" stroke-miterlimit="10" stroke-linecap="round"/>
<path d="M39.5862 24.1771L35.0557 2.51538" stroke="#CB9700" stroke-width="0.94" stroke-miterlimit="10" stroke-linecap="round"/>
<path d="M46.2816 22.7978L45.3108 11.9568" stroke="#CB9700" stroke-width="0.94" stroke-miterlimit="10" stroke-linecap="round"/>
<path d="M53.583 22.796V0.729736" stroke="#CB9700" stroke-width="0.94" stroke-miterlimit="10" stroke-linecap="round"/>
<path d="M95.3279 42.4817L103.216 35.2004" stroke="#CB9700" stroke-width="0.94" stroke-miterlimit="10" stroke-linecap="round"/>
<path d="M91.0005 37.9685L106.554 19.644" stroke="#CB9700" stroke-width="0.94" stroke-miterlimit="10" stroke-linecap="round"/>
<path d="M86.6726 33.8196L93.5493 21.6033" stroke="#CB9700" stroke-width="0.94" stroke-miterlimit="10" stroke-linecap="round"/>
<path d="M80.7454 30.4662L90.211 8.80444" stroke="#CB9700" stroke-width="0.94" stroke-miterlimit="10" stroke-linecap="round"/>
<path d="M74.0513 26.9257L78.1975 14.9116" stroke="#CB9700" stroke-width="0.94" stroke-miterlimit="10" stroke-linecap="round"/>
<path d="M67.5588 24.1771L72.0894 2.51538" stroke="#CB9700" stroke-width="0.94" stroke-miterlimit="10" stroke-linecap="round"/>
<path d="M60.8633 22.7978L61.8543 11.9568" stroke="#CB9700" stroke-width="0.94" stroke-miterlimit="10" stroke-linecap="round"/>
</svg>
